<svg viewBox="0 0 377.438 552.165">
	<path d="M110.58 490.165v-62h126v124h-126v-62zm25.955-124.75c-.025-.413-4.025-28.65-8.888-62.75-8.746-61.32-8.822-62.023-6.924-64.097 1.676-1.832 3.467-2.176 14.138-2.72 15.3-.78 32.638-3.02 48.39-6.25 27.285-5.594 45.937-14.115 58.955-26.933 12.3-12.11 16.385-21.963 16.363-39.46-.028-22.362-8.972-37-28.488-46.617-13.133-6.472-21.19-7.932-43.5-7.88-19.463.043-29.52 1.495-45 6.498-8.94 2.89-27.367 11.806-36.186 17.51-7.93 5.13-22.713 16.418-24.81 18.944-.715.862-3.432 3.35-6.037 5.533l-4.737 3.966-34.65-38.008C16.102 102.248.286 84.562.013 83.852c-.603-1.573 19.9-21.8 31.032-30.617C67.56 24.32 107.745 7.65 155.58 1.573c14.848-1.886 48.564-2.124 64-.452 50.634 5.485 89.32 22.837 118.534 53.166 24.994 25.95 37.6 58.165 39.173 100.104 2.15 57.303-18.75 100.215-63.072 129.5-19.81 13.092-49.628 25.236-78.186 31.843l-12.05 2.79-3.786 21.57c-2.08 11.865-4.02 22.584-4.307 23.822l-.524 2.25h-39.39c-21.667 0-39.413-.338-39.438-.75z" />
</svg>

